<svg width="55" height="42" viewBox="0 0 55 42" fill="none" xmlns="http://www.w3.org/2000/svg">
<g filter="url(#filter0_d)">
<path d="M28 5.074C19.833 9.407 5 5.074 5 5.074V35.074C5 35.074 19.833 39.407 28 35.074C36.167 30.741 47 35.074 47 35.074V5.074C47 5.074 36.167 0.741002 28 5.074Z" fill="url(#paint0_linear)"/>
<path d="M4 1C3.448 1 3 1.29055 3 1.65V3.6V39.35C3 39.7094 3.448 40 4 40C4.552 40 5 39.7094 5 39.35V3.6V1.65C5 1.29055 4.552 1 4 1Z" fill="#424A60"/>
<path d="M31 3.879C29.978 4.171 28.97 4.56 28 5.075C24.901 6.719 20.844 7.114 17 6.973V36.973C20.844 37.114 24.901 36.719 28 35.075C28.97 34.56 29.978 34.171 31 33.879V3.879Z" fill="url(#paint1_linear)"/>
<path d="M13.8467 4.20312H15.543V13.2646C15.543 14.4893 15.1738 15.4473 14.4355 16.1387C13.7031 16.8301 12.7246 17.1758 11.5 17.1758C10.2285 17.1758 9.23828 16.8506 8.5293 16.2002C7.82031 15.5498 7.46582 14.6387 7.46582 13.4668H9.15332C9.15332 14.1992 9.35254 14.7705 9.75098 15.1807C10.1553 15.5908 10.7383 15.7959 11.5 15.7959C12.1973 15.7959 12.7598 15.5762 13.1875 15.1367C13.6211 14.6973 13.8408 14.082 13.8467 13.291V4.20312ZM17.7314 12.1572C17.7314 11.2256 17.9131 10.3877 18.2764 9.64355C18.6455 8.89941 19.1553 8.3252 19.8057 7.9209C20.4619 7.5166 21.209 7.31445 22.0469 7.31445C23.3418 7.31445 24.3877 7.7627 25.1846 8.65918C25.9873 9.55566 26.3887 10.748 26.3887 12.2363V12.3506C26.3887 13.2764 26.21 14.1084 25.8525 14.8467C25.501 15.5791 24.9941 16.1504 24.332 16.5605C23.6758 16.9707 22.9199 17.1758 22.0645 17.1758C20.7754 17.1758 19.7295 16.7275 18.9268 15.8311C18.1299 14.9346 17.7314 13.748 17.7314 12.2715V12.1572ZM19.3662 12.3506C19.3662 13.4053 19.6094 14.252 20.0957 14.8906C20.5879 15.5293 21.2441 15.8486 22.0645 15.8486C22.8906 15.8486 23.5469 15.5264 24.0332 14.8818C24.5195 14.2314 24.7627 13.3232 24.7627 12.1572C24.7627 11.1143 24.5137 10.2705 24.0156 9.62598C23.5234 8.97559 22.8672 8.65039 22.0469 8.65039C21.2441 8.65039 20.5967 8.96973 20.1045 9.6084C19.6123 10.2471 19.3662 11.1611 19.3662 12.3506ZM33.9648 14.4775C33.9648 14.0381 33.7979 13.6982 33.4639 13.458C33.1357 13.2119 32.5586 13.001 31.7324 12.8252C30.9121 12.6494 30.2588 12.4385 29.7725 12.1924C29.292 11.9463 28.9346 11.6533 28.7002 11.3135C28.4717 10.9736 28.3574 10.5693 28.3574 10.1006C28.3574 9.32129 28.6855 8.66211 29.3418 8.12305C30.0039 7.58398 30.8477 7.31445 31.873 7.31445C32.9512 7.31445 33.8242 7.59277 34.4922 8.14941C35.166 8.70605 35.5029 9.41797 35.5029 10.2852H33.8682C33.8682 9.83984 33.6777 9.45605 33.2969 9.13379C32.9219 8.81152 32.4473 8.65039 31.873 8.65039C31.2812 8.65039 30.8184 8.7793 30.4844 9.03711C30.1504 9.29492 29.9834 9.63184 29.9834 10.0479C29.9834 10.4404 30.1387 10.7363 30.4492 10.9355C30.7598 11.1348 31.3193 11.3252 32.1279 11.5068C32.9424 11.6885 33.6016 11.9053 34.1055 12.1572C34.6094 12.4092 34.9814 12.7139 35.2217 13.0713C35.4678 13.4229 35.5908 13.8535 35.5908 14.3633C35.5908 15.2129 35.251 15.8955 34.5713 16.4111C33.8916 16.9209 33.0098 17.1758 31.9258 17.1758C31.1641 17.1758 30.4902 17.041 29.9043 16.7715C29.3184 16.502 28.8584 16.127 28.5244 15.6465C28.1963 15.1602 28.0322 14.6357 28.0322 14.0732H29.6582C29.6875 14.6182 29.9043 15.0518 30.3086 15.374C30.7188 15.6904 31.2578 15.8486 31.9258 15.8486C32.541 15.8486 33.0332 15.7256 33.4023 15.4795C33.7773 15.2275 33.9648 14.8936 33.9648 14.4775ZM41.6553 17.1758C40.3662 17.1758 39.3174 16.7539 38.5088 15.9102C37.7002 15.0605 37.2959 13.9268 37.2959 12.5088V12.21C37.2959 11.2666 37.4746 10.4258 37.832 9.6875C38.1953 8.94336 38.6992 8.36328 39.3438 7.94727C39.9941 7.52539 40.6973 7.31445 41.4531 7.31445C42.6895 7.31445 43.6504 7.72168 44.3359 8.53613C45.0215 9.35059 45.3643 10.5166 45.3643 12.0342V12.7109H38.9219C38.9453 13.6484 39.2178 14.4072 39.7393 14.9873C40.2666 15.5615 40.9346 15.8486 41.7432 15.8486C42.3174 15.8486 42.8037 15.7314 43.2021 15.4971C43.6006 15.2627 43.9492 14.9521 44.248 14.5654L45.2412 15.3389C44.4443 16.5635 43.249 17.1758 41.6553 17.1758ZM41.4531 8.65039C40.7969 8.65039 40.2461 8.89062 39.8008 9.37109C39.3555 9.8457 39.0801 10.5137 38.9746 11.375H43.7383V11.252C43.6914 10.4258 43.4688 9.78711 43.0703 9.33594C42.6719 8.87891 42.1328 8.65039 41.4531 8.65039ZM42.2441 3.5H44.2129L41.8574 6.08398H40.5479L42.2441 3.5Z" fill="white"/>
<path d="M13.8467 4.20312V3.90312H13.5467V4.20312H13.8467ZM15.543 4.20312H15.843V3.90312H15.543V4.20312ZM14.4355 16.1387L14.2305 15.9197L14.2296 15.9205L14.4355 16.1387ZM7.46582 13.4668V13.1668H7.16582V13.4668H7.46582ZM9.15332 13.4668H9.45332V13.1668H9.15332V13.4668ZM9.75098 15.1807L9.53579 15.3897L9.53732 15.3913L9.75098 15.1807ZM13.1875 15.1367L12.9739 14.926L12.9725 14.9275L13.1875 15.1367ZM13.8467 13.291L14.1467 13.2932V13.291H13.8467ZM13.8467 4.50313H15.543V3.90312H13.8467V4.50313ZM15.243 4.20312V13.2646H15.843V4.20312H15.243ZM15.243 13.2646C15.243 14.4251 14.8957 15.2967 14.2305 15.9197L14.6406 16.3576C15.452 15.5978 15.843 14.5534 15.843 13.2646H15.243ZM14.2296 15.9205C13.5644 16.5485 12.6655 16.8758 11.5 16.8758V17.4758C12.7837 17.4758 13.8419 17.1117 14.6415 16.3568L14.2296 15.9205ZM11.5 16.8758C10.2789 16.8758 9.3699 16.5642 8.7321 15.9791L8.3265 16.4213C9.10667 17.137 10.1781 17.4758 11.5 17.4758V16.8758ZM8.7321 15.9791C8.09827 15.3977 7.76582 14.5744 7.76582 13.4668H7.16582C7.16582 14.7029 7.54235 15.7019 8.3265 16.4213L8.7321 15.9791ZM7.46582 13.7668H9.15332V13.1668H7.46582V13.7668ZM8.85332 13.4668C8.85332 14.2544 9.06888 14.9091 9.53579 15.3897L9.96616 14.9716C9.6362 14.632 9.45332 14.144 9.45332 13.4668H8.85332ZM9.53732 15.3913C10.0144 15.8753 10.6849 16.0959 11.5 16.0959V15.4959C10.7917 15.4959 10.2961 15.3063 9.96463 14.9701L9.53732 15.3913ZM11.5 16.0959C12.2661 16.0959 12.9103 15.8516 13.4025 15.346L12.9725 14.9275C12.6092 15.3008 12.1284 15.4959 11.5 15.4959V16.0959ZM13.4011 15.3474C13.9037 14.838 14.1404 14.1394 14.1467 13.2932L13.5467 13.2888C13.5412 14.0246 13.3385 14.5566 12.9739 14.926L13.4011 15.3474ZM14.1467 13.291V4.20312H13.5467V13.291H14.1467ZM18.2764 9.64355L18.0076 9.51024L18.0068 9.51194L18.2764 9.64355ZM19.8057 7.9209L19.6483 7.66548L19.6473 7.66611L19.8057 7.9209ZM25.1846 8.65918L24.9603 8.85849L24.9611 8.8593L25.1846 8.65918ZM25.8525 14.8467L25.5825 14.716L25.5821 14.7169L25.8525 14.8467ZM24.332 16.5605L24.174 16.3055L24.173 16.3061L24.332 16.5605ZM18.9268 15.8311L18.7025 16.0304L18.7033 16.0312L18.9268 15.8311ZM20.0957 14.8906L19.857 15.0724L19.8581 15.0737L20.0957 14.8906ZM24.0332 14.8818L24.2727 15.0625L24.2735 15.0615L24.0332 14.8818ZM24.0156 9.62598L23.7764 9.80702L23.7782 9.80941L24.0156 9.62598ZM18.0314 12.1572C18.0314 11.2655 18.2051 10.4734 18.546 9.77517L18.0068 9.51194C17.6211 10.3019 17.4314 11.1857 17.4314 12.1572H18.0314ZM18.5451 9.77687C18.8917 9.0783 19.365 8.54805 19.964 8.17568L19.6473 7.66611C18.9455 8.10234 18.3994 8.72053 18.0076 9.51024L18.5451 9.77687ZM19.963 8.17632C20.5679 7.80369 21.2595 7.61445 22.0469 7.61445V7.01445C21.1584 7.01445 20.356 7.22951 19.6483 7.66548L19.963 8.17632ZM22.0469 7.61445C23.2638 7.61445 24.2253 8.03157 24.9603 8.85849L25.4088 8.45987C24.5501 7.49382 23.4198 7.01445 22.0469 7.01445V7.61445ZM24.9611 8.8593C25.7036 9.68855 26.0887 10.8037 26.0887 12.2363H26.6887C26.6887 10.6924 26.271 9.42277 25.4081 8.45906L24.9611 8.8593ZM26.0887 12.2363V12.3506H26.6887V12.2363H26.0887ZM26.0887 12.3506C26.0887 13.2369 25.9178 14.0234 25.5825 14.716L26.1226 14.9774C26.5021 14.1934 26.6887 13.3158 26.6887 12.3506H26.0887ZM25.5821 14.7169C25.2542 15.4 24.7853 15.9268 24.174 16.3055L24.49 16.8156C25.203 16.3739 25.7478 15.7582 26.123 14.9765L25.5821 14.7169ZM24.173 16.3061C23.5694 16.6834 22.8698 16.8758 22.0645 16.8758V17.4758C22.97 17.4758 23.7822 17.258 24.491 16.8149L24.173 16.3061ZM22.0645 16.8758C20.8539 16.8758 19.8917 16.4589 19.1503 15.6309L18.7033 16.0312C19.5673 16.9961 20.6969 17.4758 22.0645 17.4758V16.8758ZM19.151 15.6317C18.4135 14.8021 18.0314 13.6923 18.0314 12.2715H17.4314C17.4314 13.8038 17.8462 15.067 18.7025 16.0304L19.151 15.6317ZM18.0314 12.2715V12.1572H17.4314V12.2715H18.0314ZM19.0662 12.3506C19.0662 13.4503 19.32 14.3671 19.857 15.0724L20.3344 14.7089C19.8987 14.1368 19.6662 13.3602 19.6662 12.3506H19.0662ZM19.8581 15.0737C20.4082 15.7876 21.153 16.1486 22.0645 16.1486V15.5486C21.3353 15.5486 20.7676 15.271 20.3333 14.7075L19.8581 15.0737ZM22.0645 16.1486C22.9822 16.1486 23.7281 15.7842 24.2727 15.0625L23.7937 14.7011C23.3656 15.2685 22.7991 15.5486 22.0645 15.5486V16.1486ZM24.2735 15.0615C24.8122 14.341 25.0627 13.3607 25.0627 12.1572H24.4627C24.4627 13.2858 24.2268 14.1219 23.7929 14.7022L24.2735 15.0615ZM25.0627 12.1572C25.0627 11.0667 24.8018 10.1528 24.253 9.44254L23.7782 9.80941C24.2255 10.3882 24.4627 11.1618 24.4627 12.1572H25.0627ZM24.2548 9.44494C23.7056 8.71911 22.9605 8.35039 22.0469 8.35039V8.95039C22.7739 8.95039 23.3413 9.23206 23.7764 9.80701L24.2548 9.44494ZM22.0469 8.35039C21.1506 8.35039 20.4156 8.71329 19.8669 9.42527L20.3421 9.79152C20.7778 9.22616 21.3377 8.95039 22.0469 8.95039V8.35039ZM19.8669 9.42527C19.319 10.1362 19.0662 11.1251 19.0662 12.3506H19.6662C19.6662 11.1972 19.9056 10.358 20.3421 9.79152L19.8669 9.42527ZM33.4639 13.458L33.2838 13.6981L33.2887 13.7015L33.4639 13.458ZM31.7324 12.8252L31.6696 13.1185L31.67 13.1186L31.7324 12.8252ZM29.7725 12.1924L29.6357 12.4594L29.637 12.4601L29.7725 12.1924ZM28.7002 11.3135L28.4512 11.4809L28.4532 11.4838L28.7002 11.3135ZM29.3418 8.12305L29.1524 7.8904L29.1514 7.89123L29.3418 8.12305ZM34.4922 8.14941L34.3001 8.37988L34.3011 8.3807L34.4922 8.14941ZM35.5029 10.2852V10.5852H35.8029V10.2852H35.5029ZM33.8682 10.2852H33.5682V10.5852H33.8682V10.2852ZM33.2969 9.13379L33.1013 9.36132L33.1031 9.3628L33.2969 9.13379ZM32.1279 11.5068L32.0622 11.7995L32.0626 11.7996L32.1279 11.5068ZM35.2217 13.0713L34.9726 13.2387L34.9759 13.2433L35.2217 13.0713ZM34.5713 16.4111L34.7513 16.6511L34.7526 16.6501L34.5713 16.4111ZM28.5244 15.6465L28.2757 15.8143L28.2781 15.8177L28.5244 15.6465ZM28.0322 14.0732V13.7732H27.7322V14.0732H28.0322ZM29.6582 14.0732L29.9578 14.0571L29.9425 13.7732H29.6582V14.0732ZM30.3086 15.374L30.1216 15.6086L30.1254 15.6116L30.3086 15.374ZM33.4023 15.4795L33.5688 15.7291L33.5697 15.7285L33.4023 15.4795ZM34.2648 14.4775C34.2648 13.9493 34.0575 13.5154 33.639 13.2145L33.2887 13.7015C33.5382 13.8811 33.6648 14.1269 33.6648 14.4775H34.2648ZM33.6439 13.218C33.2603 12.9303 32.6279 12.709 31.7949 12.5318L31.67 13.1186C32.4893 13.293 33.0112 13.4935 33.2839 13.698L33.6439 13.218ZM31.7953 12.5319C30.9882 12.3589 30.3624 12.1547 29.9079 11.9247L29.637 12.4601C30.1552 12.7223 30.836 12.9399 31.6696 13.1185L31.7953 12.5319ZM29.9092 11.9254C29.4598 11.6952 29.146 11.4315 28.9472 11.1432L28.4532 11.4838C28.7231 11.8751 29.1242 12.1974 29.6357 12.4594L29.9092 11.9254ZM28.9491 11.1461C28.7585 10.8626 28.6574 10.5186 28.6574 10.1006H28.0574C28.0574 10.6201 28.1848 11.0847 28.4512 11.4809L28.9491 11.1461ZM28.6574 10.1006C28.6574 9.41986 28.9383 8.84277 29.5322 8.35486L29.1514 7.89123C28.4328 8.48145 28.0574 9.22272 28.0574 10.1006H28.6574ZM29.5312 8.35569C30.1296 7.8685 30.9023 7.61445 31.873 7.61445V7.01445C30.7931 7.01445 29.8782 7.29947 29.1524 7.8904L29.5312 8.35569ZM31.873 7.61445C32.8984 7.61445 33.6981 7.87816 34.3001 8.37988L34.6842 7.91895C33.9504 7.30739 33.004 7.01445 31.873 7.01445V7.61445ZM34.3011 8.3807C34.9066 8.88087 35.2029 9.50827 35.2029 10.2852H35.8029C35.8029 9.32767 35.4254 8.53124 34.6833 7.91813L34.3011 8.3807ZM35.5029 9.98516H33.8682V10.5852H35.5029V9.98516ZM34.1682 10.2852C34.1682 9.74032 33.9298 9.27633 33.4907 8.90477L33.1031 9.3628C33.4257 9.63578 33.5682 9.93936 33.5682 10.2852H34.1682ZM33.4924 8.90626C33.0544 8.52983 32.5068 8.35039 31.873 8.35039V8.95039C32.3878 8.95039 32.7894 9.09321 33.1013 9.36131L33.4924 8.90626ZM31.873 8.35039C31.241 8.35039 30.705 8.48778 30.3011 8.79963L30.6677 9.27459C30.9317 9.07081 31.3215 8.95039 31.873 8.95039V8.35039ZM30.3011 8.79963C29.8947 9.1133 29.6834 9.53734 29.6834 10.0479H30.2834C30.2834 9.72633 30.4061 9.47654 30.6677 9.27459L30.3011 8.79963ZM29.6834 10.0479C29.6834 10.5348 29.8843 10.9296 30.2872 11.1881L30.6112 10.683C30.3931 10.5431 30.2834 10.3461 30.2834 10.0479H29.6834ZM30.2872 11.1881C30.6459 11.4182 31.2513 11.6174 32.0622 11.7995L32.1937 11.2141C31.3873 11.033 30.8736 10.8514 30.6112 10.683L30.2872 11.1881ZM32.0626 11.7996C32.8635 11.9782 33.497 12.1884 33.9713 12.4256L34.2396 11.8889C33.7061 11.6221 33.0213 11.3987 32.1932 11.214L32.0626 11.7996ZM33.9713 12.4256C34.4427 12.6613 34.7689 12.9355 34.9727 13.2386L35.4707 12.9039C35.1939 12.4922 34.776 12.1571 34.2396 11.8889L33.9713 12.4256ZM34.9759 13.2433C35.1805 13.5356 35.2908 13.9032 35.2908 14.3633H35.8908C35.8908 13.8038 35.7551 13.3101 35.4674 12.8993L34.9759 13.2433ZM35.2908 14.3633C35.2908 15.1186 34.9953 15.7129 34.39 16.1721L34.7526 16.6501C35.5067 16.0781 35.8908 15.3072 35.8908 14.3633H35.2908ZM34.3913 16.1711C33.7763 16.6324 32.9629 16.8758 31.9258 16.8758V17.4758C33.0566 17.4758 34.0069 17.2094 34.7513 16.6511L34.3913 16.1711ZM31.9258 16.8758C31.1996 16.8758 30.5698 16.7474 30.0297 16.4989L29.7789 17.044C30.4107 17.3346 31.1285 17.4758 31.9258 17.4758V16.8758ZM30.0297 16.4989C29.4873 16.2494 29.0711 15.9074 28.7707 15.4753L28.2781 15.8177C28.6457 16.3465 29.1495 16.7545 29.7789 17.044L30.0297 16.4989ZM28.7731 15.4787C28.4769 15.0397 28.3322 14.5733 28.3322 14.0732H27.7322C27.7322 14.6982 27.9157 15.2806 28.2757 15.8143L28.7731 15.4787ZM28.0322 14.3732H29.6582V13.7732H28.0322V14.3732ZM29.3586 14.0893C29.3922 14.7145 29.6462 15.2297 30.1216 15.6086L30.4956 15.1394C30.1624 14.8738 29.9828 14.5219 29.9578 14.0571L29.3586 14.0893ZM30.1254 15.6116C30.6015 15.9789 31.2109 16.1486 31.9258 16.1486V15.5486C31.3048 15.5486 30.836 15.402 30.4918 15.1365L30.1254 15.6116ZM31.9258 16.1486C32.5781 16.1486 33.1347 16.0185 33.5688 15.7291L33.2359 15.2299C32.9317 15.4327 32.5039 15.5486 31.9258 15.5486V16.1486ZM33.5697 15.7285C34.0192 15.4265 34.2648 15.0032 34.2648 14.4775H33.6648C33.6648 14.7839 33.5355 15.0286 33.235 15.2305L33.5697 15.7285ZM38.5088 15.9102L38.2915 16.117L38.2922 16.1177L38.5088 15.9102ZM37.832 9.6875L37.5624 9.55589L37.562 9.55678L37.832 9.6875ZM39.3438 7.94727L39.5064 8.19932L39.507 8.19895L39.3438 7.94727ZM45.3643 12.7109V13.0109H45.6643V12.7109H45.3643ZM38.9219 12.7109V12.4109H38.6143L38.622 12.7184L38.9219 12.7109ZM39.7393 14.9873L39.5161 15.1879L39.5183 15.1902L39.7393 14.9873ZM44.248 14.5654L44.4324 14.3287L44.1948 14.1437L44.0107 14.382L44.248 14.5654ZM45.2412 15.3389L45.4927 15.5025L45.643 15.2715L45.4255 15.1022L45.2412 15.3389ZM39.8008 9.37109L40.0196 9.57637L40.0208 9.57502L39.8008 9.37109ZM38.9746 11.375L38.6768 11.3385L38.6356 11.675H38.9746V11.375ZM43.7383 11.375V11.675H44.0383V11.375H43.7383ZM43.7383 11.252H44.0383V11.2434L44.0378 11.235L43.7383 11.252ZM43.0703 9.33594L42.8442 9.53308L42.8454 9.53452L43.0703 9.33594ZM42.2441 3.5V3.2H42.0822L41.9934 3.33537L42.2441 3.5ZM44.2129 3.5L44.4346 3.7021L44.8923 3.2H44.2129V3.5ZM41.8574 6.08398V6.38398H41.9899L42.0791 6.28609L41.8574 6.08398ZM40.5479 6.08398L40.2971 5.91935L39.992 6.38398H40.5479V6.08398ZM41.6553 16.8758C40.4387 16.8758 39.4713 16.4809 38.7254 15.7026L38.2922 16.1177C39.1635 17.0269 40.2937 17.4758 41.6553 17.4758V16.8758ZM38.7261 15.7033C37.9813 14.9207 37.5959 13.8668 37.5959 12.5088H36.9959C36.9959 13.9867 37.4191 15.2004 38.2915 16.117L38.7261 15.7033ZM37.5959 12.5088V12.21H36.9959V12.5088H37.5959ZM37.5959 12.21C37.5959 11.3051 37.7671 10.51 38.1021 9.81822L37.562 9.55678C37.1821 10.3415 36.9959 11.2281 36.9959 12.21H37.5959ZM38.1016 9.81911C38.4429 9.12006 38.9115 8.58333 39.5064 8.19932L39.1811 7.69521C38.4869 8.14323 37.9477 8.76666 37.5624 9.55589L38.1016 9.81911ZM39.507 8.19895C40.1101 7.80776 40.7568 7.61445 41.4531 7.61445V7.01445C40.6378 7.01445 39.8782 7.24303 39.1805 7.69558L39.507 8.19895ZM41.4531 7.61445C42.6168 7.61445 43.4874 7.99387 44.1064 8.72932L44.5655 8.34294C43.8134 7.44949 42.7621 7.01445 41.4531 7.01445V7.61445ZM44.1064 8.72932C44.7305 9.47071 45.0643 10.5577 45.0643 12.0342H45.6643C45.6643 10.4755 45.3125 9.23046 44.5655 8.34294L44.1064 8.72932ZM45.0643 12.0342V12.7109H45.6643V12.0342H45.0643ZM45.3643 12.4109H38.9219V13.0109H45.3643V12.4109ZM38.622 12.7184C38.6468 13.7123 38.9377 14.5444 39.5162 15.1879L39.9624 14.7867C39.4979 14.2701 39.2438 13.5846 39.2218 12.7034L38.622 12.7184ZM39.5183 15.1902C40.1048 15.8289 40.8541 16.1486 41.7432 16.1486V15.5486C41.015 15.5486 40.4284 15.2942 39.9602 14.7844L39.5183 15.1902ZM41.7432 16.1486C42.358 16.1486 42.8998 16.023 43.3543 15.7557L43.05 15.2385C42.7076 15.4399 42.2767 15.5486 41.7432 15.5486V16.1486ZM43.3543 15.7557C43.7875 15.5008 44.1646 15.1641 44.4854 14.7489L44.0107 14.382C43.7339 14.7402 43.4137 15.0246 43.05 15.2385L43.3543 15.7557ZM44.0637 14.8021L45.0569 15.5756L45.4255 15.1022L44.4324 14.3287L44.0637 14.8021ZM44.9898 15.1752C44.254 16.306 43.1585 16.8758 41.6553 16.8758V17.4758C43.3396 17.4758 44.6347 16.821 45.4927 15.5025L44.9898 15.1752ZM41.4531 8.35039C40.7135 8.35039 40.083 8.62532 39.5808 9.16716L40.0208 9.57502C40.4092 9.15593 40.8802 8.95039 41.4531 8.95039V8.35039ZM39.582 9.16582C39.0806 9.70018 38.7875 10.4349 38.6768 11.3385L39.2724 11.4115C39.3727 10.5925 39.6303 9.99123 40.0196 9.57637L39.582 9.16582ZM38.9746 11.675H43.7383V11.075H38.9746V11.675ZM44.0383 11.375V11.252H43.4383V11.375H44.0383ZM44.0378 11.235C43.9885 10.3665 43.7522 9.65492 43.2952 9.13735L42.8454 9.53452C43.1853 9.9193 43.3943 10.4851 43.4388 11.2689L44.0378 11.235ZM43.2964 9.1388C42.8338 8.60807 42.2078 8.35039 41.4531 8.35039V8.95039C42.0578 8.95039 42.51 9.14975 42.8442 9.53308L43.2964 9.1388ZM42.2441 3.8H44.2129V3.2H42.2441V3.8ZM43.9912 3.2979L41.6357 5.88188L42.0791 6.28609L44.4346 3.7021L43.9912 3.2979ZM41.8574 5.78398H40.5479V6.38398H41.8574V5.78398ZM40.7986 6.24862L42.4949 3.66463L41.9934 3.33537L40.2971 5.91935L40.7986 6.24862Z" fill="#096F00"/>
<path d="M17.4072 33H15.7725V22.1631L12.4941 23.3672V21.8906L17.1523 20.1416H17.4072V33ZM30.5557 33H22.1709V31.8311L26.6006 26.9092C27.2568 26.165 27.708 25.5615 27.9541 25.0986C28.2061 24.6299 28.332 24.1465 28.332 23.6484C28.332 22.9805 28.1299 22.4326 27.7256 22.0049C27.3213 21.5771 26.7822 21.3633 26.1084 21.3633C25.2998 21.3633 24.6699 21.5947 24.2188 22.0576C23.7734 22.5146 23.5508 23.1533 23.5508 23.9736H21.9248C21.9248 22.7959 22.3027 21.8438 23.0586 21.1172C23.8203 20.3906 24.8369 20.0273 26.1084 20.0273C27.2979 20.0273 28.2383 20.3408 28.9297 20.9678C29.6211 21.5889 29.9668 22.418 29.9668 23.4551C29.9668 24.7148 29.1641 26.2148 27.5586 27.9551L24.1309 31.6729H30.5557V33ZM34.6426 25.8105H35.8643C36.6318 25.7988 37.2354 25.5967 37.6748 25.2041C38.1143 24.8115 38.334 24.2812 38.334 23.6133C38.334 22.1133 37.5869 21.3633 36.0928 21.3633C35.3896 21.3633 34.8271 21.5654 34.4053 21.9697C33.9893 22.3682 33.7812 22.8984 33.7812 23.5605H32.1553C32.1553 22.5469 32.5244 21.7061 33.2627 21.0381C34.0068 20.3643 34.9502 20.0273 36.0928 20.0273C37.2998 20.0273 38.2461 20.3467 38.9316 20.9854C39.6172 21.624 39.96 22.5117 39.96 23.6484C39.96 24.2051 39.7783 24.7441 39.415 25.2656C39.0576 25.7871 38.5684 26.1768 37.9473 26.4346C38.6504 26.6572 39.1924 27.0264 39.5732 27.542C39.96 28.0576 40.1533 28.6875 40.1533 29.4316C40.1533 30.5801 39.7783 31.4912 39.0283 32.165C38.2783 32.8389 37.3027 33.1758 36.1016 33.1758C34.9004 33.1758 33.9219 32.8506 33.166 32.2002C32.416 31.5498 32.041 30.6914 32.041 29.625H33.6758C33.6758 30.2988 33.8955 30.8379 34.335 31.2422C34.7744 31.6465 35.3633 31.8486 36.1016 31.8486C36.8867 31.8486 37.4873 31.6436 37.9033 31.2334C38.3193 30.8232 38.5273 30.2344 38.5273 29.4668C38.5273 28.7227 38.2988 28.1514 37.8418 27.7529C37.3848 27.3545 36.7256 27.1494 35.8643 27.1377H34.6426V25.8105ZM49.25 28.7021H51.0254V30.0293H49.25V33H47.6152V30.0293H41.7881V29.0713L47.5186 20.2031H49.25V28.7021ZM43.6338 28.7021H47.6152V22.4268L47.4219 22.7783L43.6338 28.7021Z" fill="white"/>
<path d="M17.4072 33V33.3H17.7072V33H17.4072ZM15.7725 33H15.4725V33.3H15.7725V33ZM15.7725 22.1631H16.0725V21.7333L15.669 21.8815L15.7725 22.1631ZM12.4941 23.3672H12.1941V23.797L12.5976 23.6488L12.4941 23.3672ZM12.4941 21.8906L12.3887 21.6098L12.1941 21.6828V21.8906H12.4941ZM17.1523 20.1416V19.8416H17.0979L17.0469 19.8607L17.1523 20.1416ZM17.4072 20.1416H17.7072V19.8416H17.4072V20.1416ZM17.4072 32.7H15.7725V33.3H17.4072V32.7ZM16.0725 33V22.1631H15.4725V33H16.0725ZM15.669 21.8815L12.3907 23.0856L12.5976 23.6488L15.8759 22.4447L15.669 21.8815ZM12.7941 23.3672V21.8906H12.1941V23.3672H12.7941ZM12.5996 22.1715L17.2578 20.4225L17.0469 19.8607L12.3887 21.6098L12.5996 22.1715ZM17.1523 20.4416H17.4072V19.8416H17.1523V20.4416ZM17.1072 20.1416V33H17.7072V20.1416H17.1072ZM30.5557 33V33.3H30.8557V33H30.5557ZM22.1709 33H21.8709V33.3H22.1709V33ZM22.1709 31.8311L21.9479 31.6304L21.8709 31.7159V31.8311H22.1709ZM26.6006 26.9092L26.8236 27.1099L26.8256 27.1076L26.6006 26.9092ZM27.9541 25.0986L27.6899 24.9566L27.6892 24.9578L27.9541 25.0986ZM24.2188 22.0576L24.0039 21.8482L24.0039 21.8483L24.2188 22.0576ZM23.5508 23.9736V24.2736H23.8508V23.9736H23.5508ZM21.9248 23.9736H21.6248V24.2736H21.9248V23.9736ZM23.0586 21.1172L22.8515 20.9001L22.8507 20.9009L23.0586 21.1172ZM28.9297 20.9678L28.7282 21.19L28.7292 21.1909L28.9297 20.9678ZM27.5586 27.9551L27.3381 27.7517L27.338 27.7517L27.5586 27.9551ZM24.1309 31.6729L23.9103 31.4695L23.4462 31.9729H24.1309V31.6729ZM30.5557 31.6729H30.8557V31.3729H30.5557V31.6729ZM30.5557 32.7H22.1709V33.3H30.5557V32.7ZM22.4709 33V31.8311H21.8709V33H22.4709ZM22.3939 32.0317L26.8236 27.1099L26.3776 26.7085L21.9479 31.6304L22.3939 32.0317ZM26.8256 27.1076C27.4862 26.3585 27.9561 25.7339 28.219 25.2395L27.6892 24.9578C27.4599 25.3891 27.0275 25.9715 26.3756 26.7108L26.8256 27.1076ZM28.2183 25.2407C28.4921 24.7313 28.632 24.1994 28.632 23.6484H28.032C28.032 24.0935 27.92 24.5284 27.6899 24.9566L28.2183 25.2407ZM28.632 23.6484C28.632 22.915 28.4077 22.2899 27.9436 21.7988L27.5076 22.211C27.852 22.5754 28.032 23.046 28.032 23.6484H28.632ZM27.9436 21.7988C27.4742 21.3022 26.8516 21.0633 26.1084 21.0633V21.6633C26.7128 21.6633 27.1683 21.8521 27.5076 22.211L27.9436 21.7988ZM26.1084 21.0633C25.2404 21.0633 24.525 21.3136 24.0039 21.8482L24.4336 22.267C24.8149 21.8758 25.3592 21.6633 26.1084 21.6633V21.0633ZM24.0039 21.8483C23.4897 22.376 23.2508 23.0984 23.2508 23.9736H23.8508C23.8508 23.2083 24.0572 22.6533 24.4336 22.267L24.0039 21.8483ZM23.5508 23.6736H21.9248V24.2736H23.5508V23.6736ZM22.2248 23.9736C22.2248 22.8665 22.577 21.9962 23.2665 21.3335L22.8507 20.9009C22.0285 21.6913 21.6248 22.7253 21.6248 23.9736H22.2248ZM23.2657 21.3343C23.9604 20.6716 24.897 20.3273 26.1084 20.3273V19.7273C24.7768 19.7273 23.6802 20.1096 22.8515 20.9001L23.2657 21.3343ZM26.1084 20.3273C27.2445 20.3273 28.1058 20.6257 28.7282 21.19L29.1312 20.7455C28.3707 20.056 27.3512 19.7273 26.1084 19.7273V20.3273ZM28.7292 21.1909C29.3495 21.7482 29.6668 22.4921 29.6668 23.4551H30.2668C30.2668 22.3438 29.8927 21.4295 29.1302 20.7446L28.7292 21.1909ZM29.6668 23.4551C29.6668 24.5963 28.9322 26.0237 27.3381 27.7517L27.7791 28.1585C29.3959 26.406 30.2668 24.8334 30.2668 23.4551H29.6668ZM27.338 27.7517L23.9103 31.4695L24.3514 31.8762L27.7792 28.1584L27.338 27.7517ZM24.1309 31.9729H30.5557V31.3729H24.1309V31.9729ZM30.2557 31.6729V33H30.8557V31.6729H30.2557ZM34.6426 25.8105V25.5105H34.3426V25.8105H34.6426ZM35.8643 25.8105V26.1106L35.8688 26.1105L35.8643 25.8105ZM34.4053 21.9697L34.6128 22.1864L34.6128 22.1863L34.4053 21.9697ZM33.7812 23.5605V23.8605H34.0813V23.5605H33.7812ZM32.1553 23.5605H31.8553V23.8605H32.1553V23.5605ZM33.2627 21.0381L33.464 21.2605L33.4641 21.2605L33.2627 21.0381ZM39.415 25.2656L39.1689 25.0941L39.1676 25.096L39.415 25.2656ZM37.9473 26.4346L37.8323 26.1575L37.0733 26.4725L37.8567 26.7206L37.9473 26.4346ZM39.5732 27.542L39.3319 27.7202L39.3332 27.722L39.5732 27.542ZM33.166 32.2002L32.9695 32.4268L32.9703 32.4276L33.166 32.2002ZM32.041 29.625V29.325H31.741V29.625H32.041ZM33.6758 29.625H33.9758V29.325H33.6758V29.625ZM35.8643 27.1377L35.8683 26.8377H35.8643V27.1377ZM34.6426 27.1377H34.3426V27.4377H34.6426V27.1377ZM34.6426 26.1105H35.8643V25.5105H34.6426V26.1105ZM35.8688 26.1105C36.6863 26.098 37.3668 25.8815 37.8747 25.4278L37.4749 24.9804C37.1039 25.3119 36.5774 25.4996 35.8597 25.5106L35.8688 26.1105ZM37.8747 25.4278C38.3867 24.9704 38.634 24.354 38.634 23.6133H38.034C38.034 24.2085 37.8418 24.6526 37.4749 24.9804L37.8747 25.4278ZM38.634 23.6133C38.634 22.8173 38.4356 22.1652 37.9862 21.7141C37.5366 21.2627 36.8864 21.0633 36.0928 21.0633V21.6633C36.7933 21.6633 37.2637 21.8389 37.5611 22.1375C37.8588 22.4364 38.034 22.9092 38.034 23.6133H38.634ZM36.0928 21.0633C35.329 21.0633 34.6864 21.2848 34.1977 21.7531L34.6128 22.1863C34.9679 21.8461 35.4503 21.6633 36.0928 21.6633V21.0633ZM34.1978 21.7531C33.7137 22.2167 33.4812 22.83 33.4812 23.5605H34.0813C34.0813 22.9669 34.2648 22.5196 34.6128 22.1864L34.1978 21.7531ZM33.7812 23.2605H32.1553V23.8605H33.7812V23.2605ZM32.4553 23.5605C32.4553 22.6299 32.7898 21.8705 33.464 21.2605L33.0614 20.8156C32.259 21.5416 31.8553 22.4639 31.8553 23.5605H32.4553ZM33.4641 21.2605C34.1454 20.6435 35.0136 20.3273 36.0928 20.3273V19.7273C34.8868 19.7273 33.8683 20.085 33.0613 20.8157L33.4641 21.2605ZM36.0928 20.3273C37.2465 20.3273 38.1117 20.6315 38.7271 21.2049L39.1361 20.7658C38.3805 20.0618 37.3531 19.7273 36.0928 19.7273V20.3273ZM38.7271 21.2049C39.3391 21.7749 39.66 22.5758 39.66 23.6484H40.26C40.26 22.4476 39.8953 21.4731 39.1361 20.7658L38.7271 21.2049ZM39.66 23.6484C39.66 24.1353 39.5023 24.6156 39.1689 25.0941L39.6612 25.4371C40.0544 24.8727 40.26 24.2748 40.26 23.6484H39.66ZM39.1676 25.096C38.8451 25.5665 38.4033 25.9204 37.8323 26.1575L38.0623 26.7116C38.7334 26.4331 39.2701 26.0077 39.6625 25.4352L39.1676 25.096ZM37.8567 26.7206C38.5089 26.9271 38.9942 27.263 39.3319 27.7202L39.8146 27.3638C39.3906 26.7898 38.7919 26.3874 38.0378 26.1486L37.8567 26.7206ZM39.3332 27.722C39.6752 28.1779 39.8533 28.742 39.8533 29.4316H40.4533C40.4533 28.633 40.2447 27.9373 39.8132 27.362L39.3332 27.722ZM39.8533 29.4316C39.8533 30.508 39.5054 31.3332 38.8278 31.9419L39.2288 32.3882C40.0513 31.6493 40.4533 30.6521 40.4533 29.4316H39.8533ZM38.8278 31.9419C38.1431 32.5571 37.2437 32.8758 36.1016 32.8758V33.4758C37.3618 33.4758 38.4136 33.1207 39.2288 32.3882L38.8278 31.9419ZM36.1016 32.8758C34.9568 32.8758 34.0525 32.5672 33.3617 31.9728L32.9703 32.4276C33.7912 33.134 34.8439 33.4758 36.1016 33.4758V32.8758ZM33.3626 31.9735C32.6836 31.3848 32.341 30.6117 32.341 29.625H31.741C31.741 30.7711 32.1484 31.7149 32.9695 32.4268L33.3626 31.9735ZM32.041 29.925H33.6758V29.325H32.041V29.925ZM33.3758 29.625C33.3758 30.3708 33.6224 30.9943 34.1318 31.463L34.5381 31.0214C34.1686 30.6815 33.9758 30.2268 33.9758 29.625H33.3758ZM34.1318 31.463C34.639 31.9295 35.3067 32.1486 36.1016 32.1486V31.5486C35.4199 31.5486 34.9098 31.3634 34.5381 31.0214L34.1318 31.463ZM36.1016 32.1486C36.9377 32.1486 37.6247 31.9294 38.1139 31.447L37.6927 31.0198C37.35 31.3577 36.8358 31.5486 36.1016 31.5486V32.1486ZM38.1139 31.447C38.6035 30.9644 38.8273 30.2884 38.8273 29.4668H38.2273C38.2273 30.1803 38.0352 30.6821 37.6927 31.0198L38.1139 31.447ZM38.8273 29.4668C38.8273 28.6574 38.5759 27.9949 38.0389 27.5268L37.6447 27.9791C38.0218 28.3078 38.2273 28.7879 38.2273 29.4668H38.8273ZM38.0389 27.5268C37.5097 27.0654 36.7713 26.85 35.8683 26.8377L35.8602 27.4377C36.6799 27.4488 37.2599 27.6436 37.6447 27.9791L38.0389 27.5268ZM35.8643 26.8377H34.6426V27.4377H35.8643V26.8377ZM34.9426 27.1377V25.8105H34.3426V27.1377H34.9426ZM49.25 28.7021H48.95V29.0021H49.25V28.7021ZM51.0254 28.7021H51.3254V28.4021H51.0254V28.7021ZM51.0254 30.0293V30.3293H51.3254V30.0293H51.0254ZM49.25 30.0293V29.7293H48.95V30.0293H49.25ZM49.25 33V33.3H49.55V33H49.25ZM47.6152 33H47.3152V33.3H47.6152V33ZM47.6152 30.0293H47.9152V29.7293H47.6152V30.0293ZM41.7881 30.0293H41.4881V30.3293H41.7881V30.0293ZM41.7881 29.0713L41.5361 28.9085L41.4881 28.9828V29.0713H41.7881ZM47.5186 20.2031V19.9031H47.3552L47.2666 20.0403L47.5186 20.2031ZM49.25 20.2031H49.55V19.9031H49.25V20.2031ZM43.6338 28.7021L43.381 28.5405L43.0859 29.0021H43.6338V28.7021ZM47.6152 28.7021V29.0021H47.9152V28.7021H47.6152ZM47.6152 22.4268H47.9152L47.3524 22.2822L47.6152 22.4268ZM47.4219 22.7783L47.6746 22.9399L47.68 22.9316L47.6847 22.9229L47.4219 22.7783ZM49.25 29.0021H51.0254V28.4021H49.25V29.0021ZM50.7254 28.7021V30.0293H51.3254V28.7021H50.7254ZM51.0254 29.7293H49.25V30.3293H51.0254V29.7293ZM48.95 30.0293V33H49.55V30.0293H48.95ZM49.25 32.7H47.6152V33.3H49.25V32.7ZM47.9152 33V30.0293H47.3152V33H47.9152ZM47.6152 29.7293H41.7881V30.3293H47.6152V29.7293ZM42.0881 30.0293V29.0713H41.4881V30.0293H42.0881ZM42.0401 29.2341L47.7705 20.3659L47.2666 20.0403L41.5361 28.9085L42.0401 29.2341ZM47.5186 20.5031H49.25V19.9031H47.5186V20.5031ZM48.95 20.2031V28.7021H49.55V20.2031H48.95ZM43.6338 29.0021H47.6152V28.4021H43.6338V29.0021ZM47.9152 28.7021V22.4268H47.3152V28.7021H47.9152ZM47.3524 22.2822L47.159 22.6337L47.6847 22.9229L47.8781 22.5713L47.3524 22.2822ZM47.1691 22.6167L43.381 28.5405L43.8865 28.8638L47.6746 22.9399L47.1691 22.6167Z" fill="#096F00"/>
</g>
<defs>
<filter id="filter0_d" x="-1" y="1" width="56.3254" height="47" filterUnits="userSpaceOnUse" color-interpolation-filters="sRGB">
<feFlood flood-opacity="0" result="BackgroundImageFix"/>
<feColorMatrix in="SourceAlpha" type="matrix" values="0 0 0 0 0 0 0 0 0 0 0 0 0 0 0 0 0 0 127 0"/>
<feOffset dy="4"/>
<feGaussianBlur stdDeviation="2"/>
<feColorMatrix type="matrix" values="0 0 0 0 0 0 0 0 0 0 0 0 0 0 0 0 0 0 0.25 0"/>
<feBlend mode="normal" in2="BackgroundImageFix" result="effect1_dropShadow"/>
<feBlend mode="normal" in="SourceGraphic" in2="effect1_dropShadow" result="shape"/>
</filter>
<linearGradient id="paint0_linear" x1="26" y1="3.14822" x2="26" y2="36.9998" gradientUnits="userSpaceOnUse">
<stop stop-color="#328216"/>
<stop offset="1" stop-color="#FFC400"/>
</linearGradient>
<linearGradient id="paint1_linear" x1="24" y1="3.879" x2="24" y2="36.9994" gradientUnits="userSpaceOnUse">
<stop stop-color="#328216"/>
<stop offset="1" stop-color="#CA9D00"/>
</linearGradient>
</defs>
</svg>
